PathFileType	4	(X/Y/Z)	/Users/itak/Documents/Research/Walk-IL/dataset/trc/00134_00007.trc
DataRate	CameraRate	NumFrames	NumMarkers	Units	OrigDataRate	OrigDataStartFrame	OrigNumFrames
100.000000	100.000000	4	53	mm	100.000000	649	742
Frame#	Time	RPSI			LPSI			L3			STRN			T10			C7			CLAV			RBAK			LBAK			LSHO			LUPA			LAEL			LAOL			LWTS			LWPS			LFRA			LIFD			LHPS			LHTS			RSHO			RUPA			RAEL			RAOL			RWTS			RWPS			RFRA			RIFD			RHTS			RHPS			RBHD			LFHD			RFHD			LBHD			LHIP			RHIP			RASI			LASI			LKNE			LTHI			LANK			LTIP			LTOE			LMT1			LMT5			LHEE			RKNE			RTHI			RANK			RTIP			RTOE			RMT1			RMT5			RHEE			
		X1	Y1	Z1	X2	Y2	Z2	X3	Y3	Z3	X4	Y4	Z4	X5	Y5	Z5	X6	Y6	Z6	X7	Y7	Z7	X8	Y8	Z8	X9	Y9	Z9	X10	Y10	Z10	X11	Y11	Z11	X12	Y12	Z12	X13	Y13	Z13	X14	Y14	Z14	X15	Y15	Z15	X16	Y16	Z16	X17	Y17	Z17	X18	Y18	Z18	X19	Y19	Z19	X20	Y20	Z20	X21	Y21	Z21	X22	Y22	Z22	X23	Y23	Z23	X24	Y24	Z24	X25	Y25	Z25	X26	Y26	Z26	X27	Y27	Z27	X28	Y28	Z28	X29	Y29	Z29	X30	Y30	Z30	X31	Y31	Z31	X32	Y32	Z32	X33	Y33	Z33	X34	Y34	Z34	X35	Y35	Z35	X36	Y36	Z36	X37	Y37	Z37	X38	Y38	Z38	X39	Y39	Z39	X40	Y40	Z40	X41	Y41	Z41	X42	Y42	Z42	X43	Y43	Z43	X44	Y44	Z44	X45	Y45	Z45	X46	Y46	Z46	X47	Y47	Z47	X48	Y48	Z48	X49	Y49	Z49	X50	Y50	Z50	X51	Y51	Z51	X52	Y52	Z52	X53	Y53	Z53	

650	6.49	769.624755859375	1119.74169921875	802.8665161132812	855.8207397460938	1127.983032226562	907.9078369140625	819.97900390625	1159.0888671875	852.7318725585938	652.88525390625	1363.104370117188	980.497314453125	856.5555419921875	1308.001831054688	826.9642333984375	845.4060668945312	1601.46923828125	854.557373046875	690.47021484375	1495.33642578125	956.788330078125	832.8676147460938	1414.932006835938	756.2305297851562	911.1904296875	1580.836669921875	932.4577026367188	879.2721557617188	1567.083374023438	1037.2900390625	930.4947509765625	1439.4375	1093.681274414062	912.8464965820312	1229.774047851562	1157.772216796875	929.8109741210938	1196.69384765625	1077.550659179688	741.6651000976562	1030.523559570312	1244.747436523438	808.8502807617188	974.530029296875	1228.278442382812	875.23046875	1127.605834960938	1198.757934570312	655.6554565429688	862.1522827148438	1280.411376953125	764.1520385742188	919.277587890625	1265.011108398438	709.2490844726562	956.6951293945312	1286.887329101562	692.754638671875	1582.481567382812	740.3633422851562	671.1403198242188	1508.838623046875	678.906982421875	680.328369140625	1215.086303710938	653.428466796875	737.192138671875	1215.654052734375	731.8380737304688	567.94482421875	971.6073608398438	742.6119384765625	615.1445922851562	954.3535766601562	676.6377563476562	653.5682983398438	1141.349243164062	652.8306274414062	566.1795043945312	776.7659301757812	776.785400390625	541.6716918945312	862.296630859375	755.1515502929688	583.4478759765625	854.6597900390625	693.5548095703125	747.365234375	1783.864624023438	833.090576171875	661.325927734375	1813.7333984375	1034.427734375	595.1289672851562	1812.773803710938	921.1538696289062	820.2824096679688	1790.5341796875	945.0391845703125	850.7588500976562	1045.167358398438	1052.966064453125	597.3496704101562	1022.337341308594	800.1508178710938	570.0908203125	1101.448974609375	886.4066772460938	740.4544067382812	1110.498657226562	1088.562866210938	830.4376831054688	545.0675659179688	1037.955810546875	859.048583984375	691.0603637695312	1049.68701171875	930.941650390625	44.76654434204102	949.3092041015625	930.3836059570312	300.5411682128906	989.1489868164062	713.2664794921875	31.20096397399902	1049.258544921875	757.1101684570312	46.07548141479492	971.6102905273438	848.6961059570312	39.7752571105957	1046.1396484375	947.5184326171875	43.28316116333008	859.33251953125	611.1495971679688	532.935791015625	891.8282470703125	581.5071411132812	810.6766967773438	842.567138671875	767.7647705078125	41.43062591552734	803.2562255859375	638.13232421875	397.5000610351562	862.6882934570312	618.3154907226562	34.94224548339844	989.0526733398438	695.560791015625	31.35921669006348	983.52978515625	651.9426879882812	43.95822906494141	870.3026123046875	840.9051513671875	41.33885955810547	802.8301391601562	
651	6.5	767.4893188476562	1120.763061523438	804.5151977539062	854.2415161132812	1128.454833984375	909.1861572265625	818.0767211914062	1159.698608398438	854.21728515625	651.7659912109375	1363.646362304688	982.29345703125	854.9902954101562	1308.230346679688	828.2674560546875	844.3462524414062	1601.653442382812	855.5671997070312	689.4264526367188	1495.796508789062	958.1873779296875	831.2831420898438	1414.997436523438	757.5886840820312	910.245361328125	1581.102661132812	933.4188232421875	878.47216796875	1567.460083007812	1038.368041992188	929.3499145507812	1439.4658203125	1094.432006835938	910.9789428710938	1229.38916015625	1157.560791015625	927.8488159179688	1196.871826171875	1077.089233398438	740.7717895507812	1028.345825195312	1242.91552734375	808.048095703125	972.8007202148438	1225.481323242188	873.7216186523438	1126.627197265625	1197.638671875	655.5702514648438	858.9719848632812	1276.323974609375	763.8319091796875	916.9422607421875	1261.513916015625	708.775634765625	953.7382202148438	1284.140258789062	691.5292358398438	1582.741333007812	741.6729125976562	669.6749267578125	1509.096557617188	680.2855224609375	678.019775390625	1215.359985351562	654.9251098632812	734.9893188476562	1215.777954101562	733.2545776367188	565.32421875	972.0077514648438	744.1159057617188	612.4462890625	954.7567749023438	678.0844116210938	651.0883178710938	1141.697143554688	654.351318359375	563.2025146484375	777.1013793945312	777.99169921875	538.8955078125	862.7265625	756.5368041992188	580.5671997070312	855.123291015625	694.8805541992188	746.2529296875	1784.349487304688	834.331298828125	660.7000732421875	1814.002807617188	1035.854370117188	594.2489013671875	1813.145874023438	922.6716918945312	819.4555053710938	1790.954223632812	946.0588989257812	849.5028686523438	1045.239135742188	1054.005493164062	595.2789916992188	1023.443664550781	801.996826171875	568.3518676757812	1102.23095703125	888.6356811523438	739.4153442382812	1110.68701171875	1090.082885742188	829.5864868164062	545.1414794921875	1038.68115234375	858.1718139648438	691.1868896484375	1050.4619140625	931.0179443359375	44.96741485595703	949.340576171875	930.11572265625	300.9205932617188	989.4087524414062	713.2831420898438	31.23163414001465	1049.25732421875	757.0789184570312	46.29096984863281	971.5996704101562	848.7625732421875	39.79569244384766	1046.281860351562	947.5084228515625	43.6180419921875	859.3682861328125	612.7135009765625	533.4130249023438	888.8120727539062	580.7908325195312	811.4530639648438	842.6882934570312	767.3330688476562	40.83290863037109	802.7514038085938	639.2613525390625	397.9650268554688	860.0828247070312	618.380859375	34.97287368774414	988.97802734375	695.5625	31.53258323669434	983.3115234375	651.642822265625	43.83670043945312	870.069580078125	840.4706420898438	40.677734375	802.1041259765625	
652	6.51	765.47314453125	1121.774536132812	806.0391845703125	852.778564453125	1128.922241210938	910.3338012695312	816.2774658203125	1160.359008789062	855.5902709960938	650.7566528320312	1364.192138671875	984.0587768554688	853.4819946289062	1308.521240234375	829.4891967773438	843.3213500976562	1601.883056640625	856.5680541992188	688.4503784179688	1496.273803710938	959.585693359375	829.7445068359375	1415.133056640625	758.8900146484375	909.3453979492188	1581.415893554688	934.36962890625	877.7213134765625	1567.875244140625	1039.423217773438	928.2987670898438	1439.55029296875	1095.164184570312	909.287353515625	1229.0458984375	1157.295776367188	926.0772705078125	1197.121826171875	1076.582641601562	740.126953125	1026.098999023438	1240.903686523438	807.5614624023438	971.079345703125	1222.567016601562	872.4226684570312	1125.64013671875	1196.431396484375	655.8593139648438	855.6403198242188	1271.916870117188	763.8353881835938	914.51611328125	1257.814453125	708.6119995117188	950.6798706054688	1281.177978515625	690.324462890625	1583.04541015625	743.004638671875	668.2294311523438	1509.418823242188	681.6668701171875	675.764404296875	1215.704467773438	656.3475952148438	732.8436279296875	1215.96142578125	734.59716796875	562.6677856445312	972.5162963867188	745.5304565429688	609.74462890625	955.239013671875	679.48046875	648.6511840820312	1142.113891601562	655.7920532226562	560.1134643554688	777.5718383789062	779.1831665039062	536.0435791015625	863.2972412109375	757.8536376953125	577.6234130859375	855.6802978515625	696.1748046875	745.2068481445312	1784.844848632812	835.5309448242188	660.0936279296875	1814.325317382812	1037.195678710938	593.4216918945312	1813.544799804688	924.1156616210938	818.6671752929688	1791.413452148438	947.0390625	848.3839721679688	1045.33251953125	1054.92236328125	593.296875	1024.547973632812	803.7343139648438	566.7593994140625	1103.003051757812	890.7769775390625	738.5464477539062	1110.905883789062	1091.538330078125	828.6807250976562	545.220703125	1039.447387695312	857.2661743164062	691.3234252929688	1051.2421875	931.0973510742188	45.1917839050293	949.39453125	929.7691650390625	301.2935485839844	989.7158203125	713.2960205078125	31.25845336914062	1049.258544921875	757.0657958984375	46.47915267944336	971.5902099609375	848.8223266601562	39.8209114074707	1046.437744140625	947.5091552734375	43.98476028442383	859.4349975585938	614.2481689453125	533.9650268554688	885.777587890625	580.0861206054688	812.2573852539062	842.7041625976562	766.9550170898438	40.30301284790039	802.2825317382812	640.4031982421875	398.5426330566406	857.4293823242188	618.4423828125	35.00721740722656	988.9048461914062	695.5510864257812	31.74397277832031	983.0849609375	651.318115234375	43.71839141845703	869.826171875	840.0816650390625	40.16159439086914	801.4857177734375	
653	6.52	763.5897827148438	1122.732421875	807.4417114257812	851.426513671875	1129.358520507812	911.3682250976562	814.5950927734375	1161.020629882812	856.8529052734375	649.8599243164062	1364.719970703125	985.7861938476562	852.03076171875	1308.85546875	830.6234130859375	842.3343505859375	1602.141967773438	857.5618286132812	687.547119140625	1496.741333007812	960.981201171875	828.2557983398438	1415.323852539062	760.1241455078125	908.4883422851562	1581.751953125	935.3045654296875	877.0260009765625	1568.295288085938	1040.453002929688	927.3505249023438	1439.66015625	1095.873657226562	907.7711791992188	1228.721801757812	1156.991455078125	924.5113525390625	1197.410400390625	1076.053344726562	739.7047119140625	1023.788940429688	1238.716918945312	807.3777465820312	969.3720092773438	1219.579956054688	871.3220825195312	1124.631225585938	1195.1552734375	656.4962768554688	852.1904296875	1267.246337890625	764.1270751953125	912.00634765625	1253.9619140625	708.7405395507812	947.5557861328125	1278.0361328125	689.134521484375	1583.377319335938	744.357421875	666.7955322265625	1509.786254882812	683.0556640625	673.5530395507812	1216.100341796875	657.69287109375	730.7618408203125	1216.184448242188	735.8500366210938	559.9901733398438	973.1183471679688	746.8772583007812	607.0354614257812	955.7802734375	680.8323364257812	646.2528686523438	1142.579223632812	657.154296875	556.9451904296875	778.1635131835938	780.3983154296875	533.12548828125	863.9922485351562	759.1347045898438	574.6192626953125	856.3092651367188	697.456298828125	744.2318115234375	1785.329223632812	836.6891479492188	659.501708984375	1814.67919921875	1038.457641601562	592.6481323242188	1813.950805664062	925.4896850585938	817.9151611328125	1791.878784179688	947.9887084960938	847.3836669921875	1045.43701171875	1055.745971679688	591.416748046875	1025.603881835938	805.3706665039062	565.3160400390625	1103.737426757812	892.8302612304688	737.8191528320312	1111.1484375	1092.930786132812	827.705322265625	545.299560546875	1040.238891601562	856.3084106445312	691.464111328125	1052.028930664062	931.1434936523438	45.4382438659668	949.4279174804688	929.3322143554688	301.6593017578125	990.0621948242188	713.2994384765625	31.27996253967285	1049.26220703125	757.0494995117188	46.62289810180664	971.5770263671875	848.85791015625	39.85383224487305	1046.563842773438	947.4833984375	44.38741302490234	859.4817504882812	615.757568359375	534.5517578125	882.7741088867188	579.412353515625	813.0474853515625	842.629638671875	766.6513671875	39.83660125732422	801.850830078125	641.5603637695312	399.1910400390625	854.771484375	618.5108032226562	35.0505256652832	988.8283081054688	695.53662109375	31.97719573974609	982.8507080078125	650.9908447265625	43.59772491455078	869.5657958984375	839.7621459960938	39.76452255249023	800.981201171875	
